<mxfile host="app.diagrams.net" modified="2024-03-16T15:07:11.554Z" agent="Mozilla/5.0 (Windows NT 10.0; Win64; x64) AppleWebKit/537.36 (KHTML, like Gecko) Chrome/122.0.0.0 Safari/537.36" etag="eZCMBCSXolrAOngCUy5t" version="24.0.5" type="device">
  <diagram id="C5RBs43oDa-KdzZeNtuy" name="Page-1">
    <mxGraphModel dx="1050" dy="530" grid="1" gridSize="10" guides="1" tooltips="1" connect="1" arrows="1" fold="1" page="1" pageScale="1" pageWidth="827" pageHeight="1169" math="0" shadow="0">
      <root>
        <mxCell id="WIyWlLk6GJQsqaUBKTNV-0" />
        <mxCell id="WIyWlLk6GJQsqaUBKTNV-1" parent="WIyWlLk6GJQsqaUBKTNV-0" />
        <mxCell id="wW30EG_yAeNjK-60LsFy-0" value="Feild" style="swimlane;fontStyle=1;align=center;verticalAlign=top;childLayout=stackLayout;horizontal=1;startSize=26;horizontalStack=0;resizeParent=1;resizeParentMax=0;resizeLast=0;collapsible=1;marginBottom=0;whiteSpace=wrap;html=1;" vertex="1" parent="WIyWlLk6GJQsqaUBKTNV-1">
          <mxGeometry x="190" y="20" width="160" height="100" as="geometry" />
        </mxCell>
        <mxCell id="wW30EG_yAeNjK-60LsFy-1" value="+ value" style="text;strokeColor=none;fillColor=none;align=left;verticalAlign=top;spacingLeft=4;spacingRight=4;overflow=hidden;rotatable=0;points=[[0,0.5],[1,0.5]];portConstraint=eastwest;whiteSpace=wrap;html=1;" vertex="1" parent="wW30EG_yAeNjK-60LsFy-0">
          <mxGeometry y="26" width="160" height="26" as="geometry" />
        </mxCell>
        <mxCell id="wW30EG_yAeNjK-60LsFy-2" value="" style="line;strokeWidth=1;fillColor=none;align=left;verticalAlign=middle;spacingTop=-1;spacingLeft=3;spacingRight=3;rotatable=0;labelPosition=right;points=[];portConstraint=eastwest;strokeColor=inherit;" vertex="1" parent="wW30EG_yAeNjK-60LsFy-0">
          <mxGeometry y="52" width="160" height="8" as="geometry" />
        </mxCell>
        <mxCell id="wW30EG_yAeNjK-60LsFy-3" value="&lt;div&gt;+ __init__ (value)&lt;/div&gt;+ __str__()&lt;div&gt;&lt;br&gt;&lt;/div&gt;" style="text;strokeColor=none;fillColor=none;align=left;verticalAlign=top;spacingLeft=4;spacingRight=4;overflow=hidden;rotatable=0;points=[[0,0.5],[1,0.5]];portConstraint=eastwest;whiteSpace=wrap;html=1;" vertex="1" parent="wW30EG_yAeNjK-60LsFy-0">
          <mxGeometry y="60" width="160" height="40" as="geometry" />
        </mxCell>
        <mxCell id="wW30EG_yAeNjK-60LsFy-54" style="edgeStyle=orthogonalEdgeStyle;rounded=0;orthogonalLoop=1;jettySize=auto;html=1;" edge="1" parent="WIyWlLk6GJQsqaUBKTNV-1" source="wW30EG_yAeNjK-60LsFy-4" target="wW30EG_yAeNjK-60LsFy-0">
          <mxGeometry relative="1" as="geometry">
            <Array as="points">
              <mxPoint x="100" y="130" />
              <mxPoint x="270" y="130" />
            </Array>
          </mxGeometry>
        </mxCell>
        <mxCell id="wW30EG_yAeNjK-60LsFy-4" value="&lt;b&gt;Name&lt;/b&gt;" style="swimlane;fontStyle=0;childLayout=stackLayout;horizontal=1;startSize=26;fillColor=none;horizontalStack=0;resizeParent=1;resizeParentMax=0;resizeLast=0;collapsible=1;marginBottom=0;whiteSpace=wrap;html=1;" vertex="1" parent="WIyWlLk6GJQsqaUBKTNV-1">
          <mxGeometry x="30" y="150" width="140" height="56" as="geometry" />
        </mxCell>
        <mxCell id="wW30EG_yAeNjK-60LsFy-61" value="&amp;nbsp;+ __init__(value)" style="text;html=1;align=left;verticalAlign=middle;resizable=0;points=[];autosize=1;strokeColor=none;fillColor=none;" vertex="1" parent="wW30EG_yAeNjK-60LsFy-4">
          <mxGeometry y="26" width="140" height="30" as="geometry" />
        </mxCell>
        <mxCell id="wW30EG_yAeNjK-60LsFy-55" style="edgeStyle=orthogonalEdgeStyle;rounded=0;orthogonalLoop=1;jettySize=auto;html=1;" edge="1" parent="WIyWlLk6GJQsqaUBKTNV-1" source="wW30EG_yAeNjK-60LsFy-8" target="wW30EG_yAeNjK-60LsFy-0">
          <mxGeometry relative="1" as="geometry" />
        </mxCell>
        <mxCell id="wW30EG_yAeNjK-60LsFy-8" value="&lt;b&gt;Phone&lt;/b&gt;" style="swimlane;fontStyle=0;childLayout=stackLayout;horizontal=1;startSize=26;fillColor=none;horizontalStack=0;resizeParent=1;resizeParentMax=0;resizeLast=0;collapsible=1;marginBottom=0;whiteSpace=wrap;html=1;" vertex="1" parent="WIyWlLk6GJQsqaUBKTNV-1">
          <mxGeometry x="200" y="150" width="140" height="56" as="geometry" />
        </mxCell>
        <mxCell id="wW30EG_yAeNjK-60LsFy-62" value="&lt;span style=&quot;&quot;&gt;&amp;nbsp;+ __init__(value)&lt;/span&gt;" style="text;html=1;align=left;verticalAlign=middle;resizable=0;points=[];autosize=1;strokeColor=none;fillColor=none;" vertex="1" parent="wW30EG_yAeNjK-60LsFy-8">
          <mxGeometry y="26" width="140" height="30" as="geometry" />
        </mxCell>
        <mxCell id="wW30EG_yAeNjK-60LsFy-56" style="edgeStyle=orthogonalEdgeStyle;rounded=0;orthogonalLoop=1;jettySize=auto;html=1;" edge="1" parent="WIyWlLk6GJQsqaUBKTNV-1" source="wW30EG_yAeNjK-60LsFy-16" target="wW30EG_yAeNjK-60LsFy-0">
          <mxGeometry relative="1" as="geometry">
            <Array as="points">
              <mxPoint x="450" y="130" />
              <mxPoint x="270" y="130" />
            </Array>
          </mxGeometry>
        </mxCell>
        <mxCell id="wW30EG_yAeNjK-60LsFy-16" value="&lt;b&gt;Birthday&amp;nbsp;&lt;/b&gt;" style="swimlane;fontStyle=0;childLayout=stackLayout;horizontal=1;startSize=26;fillColor=none;horizontalStack=0;resizeParent=1;resizeParentMax=0;resizeLast=0;collapsible=1;marginBottom=0;whiteSpace=wrap;html=1;" vertex="1" parent="WIyWlLk6GJQsqaUBKTNV-1">
          <mxGeometry x="380" y="150" width="140" height="56" as="geometry" />
        </mxCell>
        <mxCell id="wW30EG_yAeNjK-60LsFy-63" value="&lt;span style=&quot;&quot;&gt;&amp;nbsp;+ __init__(value)&lt;/span&gt;" style="text;html=1;align=left;verticalAlign=middle;resizable=0;points=[];autosize=1;strokeColor=none;fillColor=none;" vertex="1" parent="wW30EG_yAeNjK-60LsFy-16">
          <mxGeometry y="26" width="140" height="30" as="geometry" />
        </mxCell>
        <mxCell id="wW30EG_yAeNjK-60LsFy-58" style="edgeStyle=orthogonalEdgeStyle;rounded=0;orthogonalLoop=1;jettySize=auto;html=1;" edge="1" parent="WIyWlLk6GJQsqaUBKTNV-1" source="wW30EG_yAeNjK-60LsFy-31" target="wW30EG_yAeNjK-60LsFy-4">
          <mxGeometry relative="1" as="geometry">
            <Array as="points">
              <mxPoint x="270" y="280" />
              <mxPoint x="100" y="280" />
            </Array>
          </mxGeometry>
        </mxCell>
        <mxCell id="wW30EG_yAeNjK-60LsFy-59" style="edgeStyle=orthogonalEdgeStyle;rounded=0;orthogonalLoop=1;jettySize=auto;html=1;" edge="1" parent="WIyWlLk6GJQsqaUBKTNV-1" source="wW30EG_yAeNjK-60LsFy-31" target="wW30EG_yAeNjK-60LsFy-8">
          <mxGeometry relative="1" as="geometry" />
        </mxCell>
        <mxCell id="wW30EG_yAeNjK-60LsFy-60" style="edgeStyle=orthogonalEdgeStyle;rounded=0;orthogonalLoop=1;jettySize=auto;html=1;" edge="1" parent="WIyWlLk6GJQsqaUBKTNV-1" source="wW30EG_yAeNjK-60LsFy-31" target="wW30EG_yAeNjK-60LsFy-16">
          <mxGeometry relative="1" as="geometry">
            <Array as="points">
              <mxPoint x="270" y="280" />
              <mxPoint x="450" y="280" />
            </Array>
          </mxGeometry>
        </mxCell>
        <mxCell id="wW30EG_yAeNjK-60LsFy-31" value="Record" style="swimlane;fontStyle=1;align=center;verticalAlign=top;childLayout=stackLayout;horizontal=1;startSize=26;horizontalStack=0;resizeParent=1;resizeParentMax=0;resizeLast=0;collapsible=1;marginBottom=0;whiteSpace=wrap;html=1;" vertex="1" parent="WIyWlLk6GJQsqaUBKTNV-1">
          <mxGeometry x="165" y="310" width="210" height="230" as="geometry">
            <mxRectangle x="40" y="320" width="100" height="30" as="alternateBounds" />
          </mxGeometry>
        </mxCell>
        <mxCell id="wW30EG_yAeNjK-60LsFy-32" value="+ name: Name&lt;div&gt;+ phones: list&lt;/div&gt;&lt;div&gt;+ birthday: None&lt;/div&gt;" style="text;strokeColor=none;fillColor=none;align=left;verticalAlign=top;spacingLeft=4;spacingRight=4;overflow=hidden;rotatable=0;points=[[0,0.5],[1,0.5]];portConstraint=eastwest;whiteSpace=wrap;html=1;" vertex="1" parent="wW30EG_yAeNjK-60LsFy-31">
          <mxGeometry y="26" width="210" height="54" as="geometry" />
        </mxCell>
        <mxCell id="wW30EG_yAeNjK-60LsFy-33" value="" style="line;strokeWidth=1;fillColor=none;align=left;verticalAlign=middle;spacingTop=-1;spacingLeft=3;spacingRight=3;rotatable=0;labelPosition=right;points=[];portConstraint=eastwest;strokeColor=inherit;" vertex="1" parent="wW30EG_yAeNjK-60LsFy-31">
          <mxGeometry y="80" width="210" height="8" as="geometry" />
        </mxCell>
        <mxCell id="wW30EG_yAeNjK-60LsFy-34" value="&lt;div&gt;+ __init__(name)&lt;/div&gt;+ add_phone(phone)&lt;div&gt;+ remove_phone(phone)&lt;/div&gt;&lt;div&gt;+ edite_phone(oldphone, newphone)&lt;/div&gt;&lt;div&gt;+ find_phone(phone)&lt;/div&gt;&lt;div&gt;+ add_birthday(birthday)&lt;/div&gt;&lt;div&gt;+ getRecord()&lt;/div&gt;&lt;div&gt;+ __str__()&lt;/div&gt;" style="text;strokeColor=none;fillColor=none;align=left;verticalAlign=top;spacingLeft=4;spacingRight=4;overflow=hidden;rotatable=0;points=[[0,0.5],[1,0.5]];portConstraint=eastwest;whiteSpace=wrap;html=1;" vertex="1" parent="wW30EG_yAeNjK-60LsFy-31">
          <mxGeometry y="88" width="210" height="142" as="geometry" />
        </mxCell>
        <mxCell id="wW30EG_yAeNjK-60LsFy-65" style="edgeStyle=orthogonalEdgeStyle;rounded=0;orthogonalLoop=1;jettySize=auto;html=1;" edge="1" parent="WIyWlLk6GJQsqaUBKTNV-1" source="wW30EG_yAeNjK-60LsFy-35" target="wW30EG_yAeNjK-60LsFy-31">
          <mxGeometry relative="1" as="geometry" />
        </mxCell>
        <mxCell id="wW30EG_yAeNjK-60LsFy-35" value="AdressBook" style="swimlane;fontStyle=1;align=center;verticalAlign=top;childLayout=stackLayout;horizontal=1;startSize=26;horizontalStack=0;resizeParent=1;resizeParentMax=0;resizeLast=0;collapsible=1;marginBottom=0;whiteSpace=wrap;html=1;" vertex="1" parent="WIyWlLk6GJQsqaUBKTNV-1">
          <mxGeometry x="170" y="600" width="200" height="198" as="geometry" />
        </mxCell>
        <mxCell id="wW30EG_yAeNjK-60LsFy-40" value="&amp;nbsp;- data: dict" style="text;html=1;align=left;verticalAlign=middle;resizable=0;points=[];autosize=1;strokeColor=none;fillColor=none;" vertex="1" parent="wW30EG_yAeNjK-60LsFy-35">
          <mxGeometry y="26" width="200" height="30" as="geometry" />
        </mxCell>
        <mxCell id="wW30EG_yAeNjK-60LsFy-39" value="" style="line;strokeWidth=1;fillColor=none;align=left;verticalAlign=middle;spacingTop=-1;spacingLeft=3;spacingRight=3;rotatable=0;labelPosition=right;points=[];portConstraint=eastwest;strokeColor=inherit;" vertex="1" parent="wW30EG_yAeNjK-60LsFy-35">
          <mxGeometry y="56" width="200" height="8" as="geometry" />
        </mxCell>
        <mxCell id="wW30EG_yAeNjK-60LsFy-38" value="+ add_record(record)&lt;div&gt;+ delete(namephone)&lt;/div&gt;&lt;div&gt;+&amp;nbsp; find(namephone)&lt;/div&gt;&lt;div&gt;+ get_upcoming_birthday()&lt;/div&gt;&lt;div&gt;+ __str__()&lt;/div&gt;" style="text;strokeColor=none;fillColor=none;align=left;verticalAlign=top;spacingLeft=4;spacingRight=4;overflow=hidden;rotatable=0;points=[[0,0.5],[1,0.5]];portConstraint=eastwest;whiteSpace=wrap;html=1;" vertex="1" parent="wW30EG_yAeNjK-60LsFy-35">
          <mxGeometry y="64" width="200" height="134" as="geometry" />
        </mxCell>
      </root>
    </mxGraphModel>
  </diagram>
</mxfile>
